{"title":"Transcendence 2014 HDRip XviD AC3 5.1 titler","uid":10468233,"size":1605803301,"categoryP":"video","categoryS":"movies","magnet":"?xt=urn:btih:f4d7b67d775e8b5901a3b00e5b2a4b973d7219cf&amp;dn=Transcendence+2014+HDRip+XviD+AC3+5.1+titler&amp;tr=udp%3A%2F%2Ftracker.openbittorrent.com%3A80&amp;tr=udp%3A%2F%2Fopen.demonii.com%3A1337&amp;tr=udp%3A%2F%2Ftracker.coppersurfer.tk%3A6969&amp;tr=udp%3A%2F%2Fexodus.desync.com%3A6969","seeders":2,"leechers":0,"uploader":"movieZ.freak","files":6,"time":1404227239,"description":"SOURCE: Transcendence 2014 720p WEB-DL H264 AC3 - EVO\n\n\n\n &lt;a href=&quot;\nhttp://www.imdb.com/title/tt2209764/&quot; rel=&quot;nofollow&quot; target=&quot;_NEW&quot;&gt;\nhttp://www.imdb.com/title/tt2209764/&lt;/a&gt;\n\n\n\n &lt;a href=&quot;\nhttp://www.rottentomatoes.com/m/transcendence_2014/&quot; rel=&quot;nofollow&quot; target=&quot;_NEW&quot;&gt;\nhttp://www.rottentomatoes.com/m/transcendence_2014/&lt;/a&gt;\n\n\n\n &lt;a href=&quot;\nhttp://en.wikipedia.org/wiki/Transcendence_%282014_film%29&quot; rel=&quot;nofollow&quot; target=&quot;_NEW&quot;&gt;\nhttp://en.wikipedia.org/wiki/Transcendence_%282014_film%29&lt;/a&gt;\n\n\n\n\n\n- SAMPLE: Yes\n\n\n- SUBTITLE: English\n\n\n- LANGUAGE / AUDIO: English\n\n\n\n\n\nSCREENSHOTS:\n-------------------    &lt;a href=&quot;\nhttp://someimage.com/Av7B&quot; rel=&quot;nofollow&quot; target=&quot;_NEW&quot;&gt;\nhttp://someimage.com/Av7B&lt;/a&gt;\n\n\n\n\nDIRECTOR: Wally Pfister\n\n\n\n\nCAST: Johnny Depp, Rebecca Hall, Paul Bettany, Cillian Murphy, Kate Mara, Morgan Freeman, Clifton Collins Jr.,...\n\n\n\nPLOT:\n-----------\nSci-Fi Thriller. Dr. Will Caster (Johnny Depp) is the foremost researcher in the field of Artificial Intelligence, working to create a sentient machine that combines the collective intelligence of everything ever known with the full range of human emotions. His highly controversial experiments have made him famous, but they have also made him the prime target of anti-technology extremists who will do whatever it takes to stop him. However, in their attempt to destroy Will, they inadvertently become the catalyst for him to succeed-to be a participant in his own transcendence. For his wife Evelyn (Rebecca Hall) and best friend Max Waters (Paul Bettany), both fellow researchers, the question is not if they can...but if they should. Their worst fears are realized as Will's thirst for knowledge evolves into a seemingly omnipresent quest for power, to what end is unknown. The only thing that is becoming terrifyingly clear is there may be no way to stop him.\n\n\n************************************\n\n- Duration: 1h 59mn\n\n- Bit rate: 1373 Kbps\n\n- Res: 720 x 298\n\n- AR: 2.40:1\n\n- FPS: 23.976 fps\n\n- Audio: AC3, 6 channels, 384 Kbps\n\n************************************\n\n\nGeneral\n-------------\nFormat : AVI\nFormat/Info : Audio Video Interleave\nFile size : 1.47 GiB\nDuration : 1h 59mn\nOverall bit rate : 1767 Kbps\nWriting library : VirtualDub build 35491\n\n\nVideo\n------------\nFormat : MPEG-4 Visual\nFormat profile : Advanced Simple@L5\nFormat settings, BVOP : 2\nFormat settings, QPel : No\nFormat settings, GMC : No warppoints\nFormat settings, Matrix : Default (H.263)\nCodec ID : XVID\nCodec ID/Hint : XviD\nDuration : 1h 59mn\nBit rate : 1373 Kbps\nWidth : 720 pixels\nHeight : 298 pixels\nDisplay aspect ratio : 2.40:1\nFrame rate : 23.976 fps\nColor space : YUV\nChroma subsampling : 4:2:0\nBit depth : 8 bits\nScan type : Progressive\nCompression mode : Lossy\nBits/(Pixel*Frame) : 0.267\nStream size : 1.14 GiB (78%)\nWriting library : XviD 65\n\n\nAudio\n-----------\nFormat : AC-3\nFormat/Info : Audio Coding 3\nMode extension : CM (complete main)\nFormat settings, Endianness : Big\nCodec ID : 2000\nDuration : 1h 59mn\nBit rate mode : Constant\nBit rate : 384 Kbps\nChannel(s) : 6 channels\nChannel positions : Front: L C R, Side: L R, LFE\nSampling rate : 48.0 KHz\nBit depth : 16 bits\nCompression mode : Lossy\nStream size : 328 MiB (22%)\nAlignment : Aligned on interleaves\nInterleave, duration : 42 ms (1.00 video frame)\nInterleave, preload duration : 512 ms","torrent":{"xt":"urn:btih:f4d7b67d775e8b5901a3b00e5b2a4b973d7219cf","amp;dn":"Transcendence+2014+HDRip+XviD+AC3+5.1+titler","amp;tr":["udp%3A%2F%2Ftracker.openbittorrent.com%3A80","udp%3A%2F%2Fopen.demonii.com%3A1337","udp%3A%2F%2Ftracker.coppersurfer.tk%3A6969","udp%3A%2F%2Fexodus.desync.com%3A6969"],"infoHash":"f4d7b67d775e8b5901a3b00e5b2a4b973d7219cf","infoHashBuffer":{"type":"Buffer","data":[244,215,182,125,119,94,139,89,1,163,176,14,91,42,75,151,61,114,25,207]},"announce":[],"urlList":[]}}